<svg width="30" height="30" viewBox="0 0 30 30" fill="none" xmlns="http://www.w3.org/2000/svg">
<path fill-rule="evenodd" clip-rule="evenodd" d="M21.6284 15.0001C21.6284 15.5781 21.1599 16.0466 20.5819 16.0466C13.4357 16.0466 15.9367 16.0466 9.41911 16.0466C8.84116 16.0466 8.3726 15.5781 8.3726 15.0001C8.3726 14.4222 8.84116 13.9536 9.41911 13.9536C15.9367 13.9536 13.4357 13.9536 20.5819 13.9536C21.1599 13.9536 21.6284 14.4222 21.6284 15.0001Z" fill="#2D2D2D"/>
<path fill-rule="evenodd" clip-rule="evenodd" d="M15 2.09302C7.87168 2.09302 2.09302 7.87168 2.09302 15C2.09302 22.1283 7.87168 27.907 15 27.907C22.1283 27.907 27.907 22.1283 27.907 15C27.907 7.87168 22.1283 2.09302 15 2.09302ZM0 15C0 6.71573 6.71573 0 15 0C23.2843 0 30 6.71573 30 15C30 23.2843 23.2843 30 15 30C6.71573 30 0 23.2843 0 15Z" fill="#2D2D2D"/>
</svg>
