<svg width="30" height="30" viewBox="0 0 30 30" fill="none" xmlns="http://www.w3.org/2000/svg">
<path fill-rule="evenodd" clip-rule="evenodd" d="M14.9995 8.37219C15.5774 8.37219 16.046 8.84074 16.046 9.4187V13.9536H20.5809C21.1588 13.9536 21.6274 14.4221 21.6274 15.0001C21.6274 15.5781 21.1588 16.0466 20.5809 16.0466H16.046V20.5815C16.046 21.1594 15.5774 21.628 14.9995 21.628C14.4215 21.628 13.953 21.1594 13.953 20.5815V16.0466H9.41809C8.84013 16.0466 8.37158 15.5781 8.37158 15.0001C8.37158 14.4221 8.84013 13.9536 9.41809 13.9536H13.953V9.4187C13.953 8.84074 14.4215 8.37219 14.9995 8.37219Z" fill="#2D2D2D"/>
<path fill-rule="evenodd" clip-rule="evenodd" d="M15 2.09302C7.87168 2.09302 2.09302 7.87168 2.09302 15C2.09302 22.1283 7.87168 27.907 15 27.907C22.1283 27.907 27.907 22.1283 27.907 15C27.907 7.87168 22.1283 2.09302 15 2.09302ZM0 15C0 6.71573 6.71573 0 15 0C23.2843 0 30 6.71573 30 15C30 23.2843 23.2843 30 15 30C6.71573 30 0 23.2843 0 15Z" fill="#2D2D2D"/>
</svg>
