<svg width="19" height="19" viewBox="0 0 19 19" fill="none" xmlns="http://www.w3.org/2000/svg">
<path fill-rule="evenodd" clip-rule="evenodd" d="M2.09322 4.17914C3.24927 4.17914 4.18644 3.2415 4.18644 2.08487C4.18644 0.928237 3.24927 -0.00939941 2.09322 -0.00939941C0.937166 -0.00939941 0 0.928237 0 2.08487C0 3.2415 0.937166 4.17914 2.09322 4.17914ZM0 19.0001V5.79005H4.18644V19.0001H0ZM15.788 5.94497C15.7728 5.94017 15.7578 5.93523 15.7429 5.93029L15.7429 5.93028C15.713 5.92041 15.6831 5.91054 15.6511 5.90174C15.5935 5.88853 15.5359 5.87772 15.4771 5.86811C15.249 5.82248 14.9994 5.79005 14.7065 5.79005C12.2026 5.79005 10.6146 7.61183 10.0913 8.31557V5.79005H5.7966V19.0001H10.0913V11.7946C10.0913 11.7946 13.3369 7.27198 14.7065 10.5937V19.0001H19V10.0857C19 8.08979 17.6328 6.42654 15.788 5.94497Z" fill="#3C4045"/>
</svg>
